<?xml version="1.0" encoding="iso-8859-1"?>
<!-- Generator: Adobe Illustrator 16.0.0, SVG Export Plug-In . SVG Version: 6.00 Build 0)  -->
<!DOCTYPE svg PUBLIC "-//W3C//DTD SVG 1.1//EN" "http://www.w3.org/Graphics/SVG/1.1/DTD/svg11.dtd">
<svg version="1.1" id="Capa_1" xmlns="http://www.w3.org/2000/svg" xmlns:xlink="http://www.w3.org/1999/xlink" x="0px" y="0px"
	 width="488.337px" height="488.337px" viewBox="0 0 488.337 488.337" style="enable-background:new 0 0 488.337 488.337;"
	 xml:space="preserve">
<g>
	<g id="Layer_7_9_">
		<path d="M97.75,59.103l-87.385,83.029c-20.206-23.595-8.528-49.521,14.911-71.8C48.722,48.058,75.208,37.715,97.75,59.103z
			 M485.274,257.608c-24.129-15.872-57.005-26.807-85.87-20.321c-31.502,7.084-41.616,43.127-31.066,70.603
			c11.592,30.205,44.216,53.275,46.808,86.697c1.326,17.062-16.721,33.817-33.105,32.997c-10.851-0.548-20.628-8.821-29-18.233
			l0.579-0.559c9.73-13.909,1.598-28.837-12.04-43.195L161.006,159.708c1.99-17.179-2.001-36.375-14.844-49.891l-42.138-44.334
			L16.423,148.72l42.137,44.345c12.978,13.661,29.462,21.199,46.895,19.921l198.162,188.677
			c13.62,14.337,26.293,24.909,40.263,16.384l0.118-0.118c17.532,18.132,39.547,32.567,63.499,15.216
			c12.274-8.876,20.931-22.789,21.082-38.189c0.148-15.584-8.425-30.474-16.777-42.978c-16.692-25.022-52.901-63.557-24.279-93.57
			c21.992-23.06,69.267-3.448,90.838,10.725C485.588,273.875,492.508,262.363,485.274,257.608z"/>
	</g>
</g>
<g>
</g>
<g>
</g>
<g>
</g>
<g>
</g>
<g>
</g>
<g>
</g>
<g>
</g>
<g>
</g>
<g>
</g>
<g>
</g>
<g>
</g>
<g>
</g>
<g>
</g>
<g>
</g>
<g>
</g>
</svg>
